<svg width="20" height="20" viewBox="0 0 20 20" fill="none" xmlns="http://www.w3.org/2000/svg">
<g clip-path="url(#clip0_12_36)">
<path d="M9.65424 4.38926C11.1826 4.38926 12.6192 5.06509 13.6742 6.12259V6.12593C13.6742 5.61843 14.0159 5.23593 14.4901 5.23593H14.6109C15.3534 5.23593 15.5051 5.93759 15.5051 6.16009L15.5092 14.0559C15.4567 14.5734 16.0426 14.8401 16.3667 14.5084C17.6342 13.2051 19.1517 7.81009 15.5784 4.68343C12.2484 1.76926 7.78091 2.24926 5.40424 3.88759C2.87841 5.63009 1.26174 9.48593 2.83258 13.1076C4.54424 17.0576 9.44174 18.2343 12.3526 17.0609C13.8267 16.4651 14.5076 18.4576 12.9767 19.1084C10.6634 20.0951 4.22508 19.9951 1.21841 14.7851C-0.814089 11.2676 -0.705756 5.07759 4.68341 1.87093C8.80591 -0.581575 14.2417 0.0975919 17.5184 3.52009C20.9442 7.09843 20.7451 13.7984 17.4026 16.4043C15.8892 17.5876 13.6392 16.4351 13.6542 14.7118L13.6384 14.1468C12.5842 15.1934 11.1817 15.8034 9.65341 15.8034C6.63258 15.8034 3.97591 13.1459 3.97591 10.1268C3.97591 7.07759 6.63341 4.38926 9.65424 4.38926ZM13.4551 9.90843C13.3409 7.69759 11.7001 6.36759 9.71841 6.36759H9.64341C7.35591 6.36759 6.08674 8.16676 6.08674 10.2093C6.08674 12.4984 7.62174 13.9434 9.63341 13.9434C11.8776 13.9434 13.3534 12.2993 13.4601 10.3551L13.4551 9.90843Z" fill="#858B9B"/>
</g>
<defs>
<clipPath id="clip0_12_36">
<rect width="20" height="20" fill="white"/>
</clipPath>
</defs>
</svg>
